<svg width="66" height="97" viewBox="0 0 66 97" fill="none" xmlns="http://www.w3.org/2000/svg">
<path d="M23.7646 0.25C27.954 0.25 31.6009 1.15749 34.6953 2.98242L35.2783 3.33301C38.1531 5.12807 40.393 7.5655 41.9951 10.6406C43.704 13.9208 44.5547 17.74 44.5547 22.0908C44.5547 25.2043 44.1954 27.9997 43.4736 30.4736L43.4727 30.4727C42.8149 32.9501 41.6015 35.4921 39.8389 38.0986C38.1437 40.6294 35.7685 43.6618 32.7148 47.1924L32.7129 47.1943L14.9697 67.1982L35.666 67.249V47.25H45.166V67.249L64.915 67.1816L65.166 67.1807V76.75H45.166V96.75H35.666V76.75H0.25V70.2539L0.30957 70.1846L25.2295 41.0361L25.2324 41.0342C27.4437 38.519 29.2296 36.3097 30.5928 34.4062L31.1514 33.6084C32.5695 31.4631 33.563 29.5059 34.1377 27.7354L34.1396 27.7275C34.7786 25.9561 35.0986 24.1138 35.0986 22.1992C35.0986 18.4352 34.0117 15.5184 31.8643 13.417C29.711 11.31 26.9211 10.25 23.4727 10.25C20.0816 10.25 17.1163 11.1717 14.5664 13.0098L14.5625 13.0127C12.0095 14.7822 9.72898 17.5526 7.72949 21.3438L7.57812 21.6318L7.33887 21.4111L0.914062 15.4736L0.771484 15.3408L0.864258 15.1699C3.54007 10.2483 6.77882 6.54278 10.585 4.06836C14.3929 1.52088 18.7892 0.250045 23.7646 0.25Z" fill="#F1414F" stroke="black" stroke-width="0.5"/>
</svg>
